<svg width="20" height="21" viewBox="0 0 20 21" fill="none" xmlns="http://www.w3.org/2000/svg">
<g id="Envelope">
<path id="Vector" d="M20 8.42414V17.2857C20 17.7768 19.8251 18.1972 19.4754 18.5469C19.1257 18.8966 18.7054 19.0715 18.2143 19.0715H1.78571C1.29464 19.0715 0.874256 18.8966 0.524554 18.5469C0.174851 18.1972 0 17.7768 0 17.2857V8.42414C0.327381 8.78873 0.703125 9.11239 1.12723 9.39512C3.82068 11.2255 5.66964 12.509 6.67411 13.2456C7.09821 13.5581 7.44234 13.8017 7.70647 13.9766C7.97061 14.1514 8.32217 14.33 8.76116 14.5123C9.20015 14.6946 9.60938 14.7857 9.98884 14.7857H10.0112C10.3906 14.7857 10.7999 14.6946 11.2388 14.5123C11.6778 14.33 12.0294 14.1514 12.2935 13.9766C12.5577 13.8017 12.9018 13.5581 13.3259 13.2456C14.5908 12.3304 16.4435 11.0469 18.8839 9.39512C19.308 9.10495 19.6801 8.78128 20 8.42414ZM20 5.14289C20 5.73069 19.8177 6.29245 19.4531 6.82816C19.0885 7.36387 18.6347 7.82146 18.0915 8.20093C15.2939 10.1429 13.5528 11.352 12.8683 11.8282C12.7939 11.8802 12.6358 11.9937 12.394 12.1686C12.1522 12.3434 11.9513 12.4848 11.7913 12.5927C11.6313 12.7006 11.4379 12.8215 11.2109 12.9554C10.984 13.0893 10.7701 13.1898 10.5692 13.2567C10.3683 13.3237 10.1823 13.3572 10.0112 13.3572H9.98884C9.81771 13.3572 9.6317 13.3237 9.4308 13.2567C9.22991 13.1898 9.016 13.0893 8.78906 12.9554C8.56213 12.8215 8.36868 12.7006 8.20871 12.5927C8.04874 12.4848 7.84784 12.3434 7.60603 12.1686C7.36421 11.9937 7.2061 11.8802 7.1317 11.8282C6.45461 11.352 5.47991 10.673 4.20759 9.79133C2.93527 8.90963 2.17262 8.3795 1.91964 8.20093C1.45833 7.88843 1.02307 7.45874 0.613839 6.91187C0.204613 6.36499 0 5.85718 0 5.38843C0 4.80807 0.15439 4.32444 0.46317 3.93753C0.771949 3.55063 1.2128 3.35718 1.78571 3.35718H18.2143C18.6979 3.35718 19.1164 3.53203 19.4699 3.88173C19.8233 4.23143 20 4.65182 20 5.14289Z" fill="black"/>
</g>
</svg>
