<svg width="68" height="68" viewBox="0 0 68 68" fill="none" xmlns="http://www.w3.org/2000/svg">
<rect width="68" height="68" rx="20" fill="black" fill-opacity="0.05"/>
<g clip-path="url(#clip0_19_218)">
<mask id="mask0_19_218" style="mask-type:luminance" maskUnits="userSpaceOnUse" x="16" y="15" width="37" height="37">
<path d="M16 15H53V52H16V15Z" fill="white"/>
</mask>
<g mask="url(#mask0_19_218)">
<path d="M34.4998 19.8685C41.5658 19.8685 47.1577 23.7632 48.812 21.8158C49.0038 21.5013 49.1051 21.1761 49.1051 20.8421C49.1051 18.8948 42.5658 15.9737 34.4998 15.9737C26.4338 15.9737 19.8945 18.8948 19.8945 20.8421C19.8945 21.1761 19.9958 21.5013 20.1876 21.8158C21.8419 23.7632 27.4338 19.8685 34.4998 19.8685Z" fill="#F4900C"/>
<path d="M34.4998 18.8948C28.4503 18.8948 24.1631 20.6572 22.5498 21.4439C22.0853 21.6708 22.024 22.2618 22.1457 22.6883C22.2674 23.1138 32.5524 49.079 32.5524 49.079C32.5524 49.079 33.4248 51.0264 34.4998 51.0264C35.5747 51.0264 36.4471 49.079 36.4471 49.079L46.8695 22.5743C46.8695 22.5743 47.0769 21.7555 46.3154 21.3787C44.6183 20.5393 40.3876 18.8948 34.4998 18.8948Z" fill="#FFCC4D"/>
</g>
<mask id="mask1_19_218" style="mask-type:luminance" maskUnits="userSpaceOnUse" x="22" y="18" width="25" height="34">
<path d="M22.5499 21.4439C22.0854 21.6708 22.0241 22.2618 22.1468 22.6883C22.2685 23.1138 32.5525 49.079 32.5525 49.079C32.5525 49.079 33.5262 51.0264 34.4999 51.0264C35.5749 51.0264 36.4473 49.079 36.4473 49.079L46.8696 22.5743C46.8696 22.5743 47.077 21.7545 46.3156 21.3777C44.6175 20.5393 40.3878 18.8948 34.4999 18.8948C28.4504 18.8948 24.1633 20.6572 22.5499 21.4439Z" fill="white"/>
</mask>
<g mask="url(#mask1_19_218)">
<path d="M34.4998 46.158C34.4997 46.6696 34.3988 47.1761 34.2029 47.6487C34.007 48.1213 33.72 48.5507 33.3581 48.9124C32.9963 49.2741 32.5668 49.5609 32.0941 49.7566C31.6214 49.9522 31.1148 50.0529 30.6032 50.0527C30.0916 50.0526 29.585 49.9517 29.1124 49.7558C28.6398 49.5599 28.2104 49.2729 27.8488 48.911C27.4871 48.5492 27.2003 48.1196 27.0046 47.6469C26.8089 47.1742 26.7083 46.6676 26.7084 46.156C26.7087 45.1228 27.1194 44.1321 27.8501 43.4017C28.5809 42.6712 29.5719 42.2611 30.6051 42.2613C31.6383 42.2616 32.6291 42.6723 33.3595 43.403C34.0899 44.1338 34.5001 45.1248 34.4998 46.158ZM33.5262 35.4475C33.5376 35.9661 33.4454 36.4819 33.2548 36.9644C33.0642 37.4469 32.7791 37.8865 32.4163 38.2573C32.0535 38.6281 31.6203 38.9227 31.142 39.1238C30.6638 39.3249 30.1502 39.4284 29.6314 39.4283C29.1126 39.4282 28.5991 39.3244 28.1209 39.1231C27.6428 38.9217 27.2097 38.6269 26.8471 38.2559C26.4845 37.8849 26.1996 37.4452 26.0093 36.9626C25.8189 36.48 25.7269 35.9642 25.7386 35.4455C25.7616 34.4279 26.1821 33.4598 26.91 32.7483C27.638 32.0368 28.6155 31.6386 29.6334 31.6388C30.6512 31.6391 31.6285 32.0378 32.3561 32.7496C33.0837 33.4615 33.5037 34.4299 33.5262 35.4475ZM36.4472 23.7633C36.4471 24.2749 36.3462 24.7814 36.1503 25.254C35.9544 25.7266 35.6673 26.156 35.3055 26.5177C34.9437 26.8793 34.5141 27.1662 34.0414 27.3618C33.5687 27.5575 33.0621 27.6581 32.5505 27.658C32.0389 27.6579 31.5324 27.557 31.0598 27.3611C30.5872 27.1652 30.1578 26.8781 29.7961 26.5163C29.4345 26.1544 29.1476 25.7249 28.952 25.2522C28.7563 24.7795 28.6557 24.2729 28.6558 23.7613C28.6561 22.7281 29.0667 21.7373 29.7975 21.0069C30.5283 20.2765 31.5193 19.8663 32.5525 19.8666C33.5857 19.8668 34.5765 20.2775 35.3069 21.0083C36.0373 21.7391 36.4475 22.7301 36.4472 23.7633ZM45.2104 28.6317C45.2102 29.1433 45.1094 29.6498 44.9135 30.1224C44.7176 30.595 44.4305 31.0244 44.0687 31.3861C43.7068 31.7477 43.2773 32.0346 42.8046 32.2302C42.3319 32.4259 41.8253 32.5265 41.3137 32.5264C40.8021 32.5263 40.2955 32.4254 39.8229 32.2295C39.3503 32.0336 38.9209 31.7465 38.5593 31.3847C38.1976 31.0229 37.9108 30.5933 37.7151 30.1206C37.5195 29.6479 37.4188 29.1413 37.419 28.6297C37.4192 27.5965 37.8299 26.6057 38.5607 25.8753C39.2914 25.1449 40.2824 24.7347 41.3156 24.735C42.3488 24.7353 43.3396 25.1459 44.07 25.8767C44.8004 26.6075 45.2106 27.5985 45.2104 28.6317ZM43.263 40.3159C43.263 42.4658 41.5182 44.2106 39.3683 44.2106C37.2184 44.2106 35.4735 42.4658 35.4735 40.3159C35.4735 38.166 37.2184 36.4212 39.3683 36.4212C41.5182 36.4212 43.263 38.166 43.263 40.3159ZM26.7104 27.658C26.7104 28.6909 26.3 29.6816 25.5696 30.412C24.8392 31.1424 23.8486 31.5527 22.8156 31.5527C21.7827 31.5527 20.792 31.1424 20.0616 30.412C19.3312 29.6816 18.9209 28.6909 18.9209 27.658C18.9209 26.625 19.3312 25.6344 20.0616 24.904C20.792 24.1736 21.7827 23.7633 22.8156 23.7633C23.8486 23.7633 24.8392 24.1736 25.5696 24.904C26.3 25.6344 26.7104 26.625 26.7104 27.658Z" fill="#BE1931"/>
</g>
</g>
<defs>
<clipPath id="clip0_19_218">
<rect width="37" height="37" fill="white" transform="translate(16 15)"/>
</clipPath>
</defs>
</svg>
