<svg width="20" height="21" viewBox="0 0 20 21" fill="none" xmlns="http://www.w3.org/2000/svg">
<g id="Lock">
<path id="Vector" d="M16.0725 14.4655C15.3756 15.6707 14.3742 16.6714 13.1686 17.3674C11.963 18.0634 10.5956 18.4302 9.2035 18.431C4.85246 18.431 1.27246 14.851 1.27246 10.5C1.27246 6.14897 4.85315 2.56897 9.2035 2.56897C13.5538 2.56897 17.1345 6.14897 17.1345 10.5" stroke="black" stroke-width="2" stroke-miterlimit="10"/>
<path id="Vector_2" d="M9.20363 6.70691C9.6609 6.70691 10.0994 6.88856 10.4228 7.2119C10.7461 7.53524 10.9278 7.97378 10.9278 8.43105V10.8448H7.47949V8.43105C7.47949 7.97378 7.66114 7.53524 7.98448 7.2119C8.30782 6.88856 8.74636 6.70691 9.20363 6.70691Z" stroke="black" stroke-width="2" stroke-miterlimit="10"/>
<path id="Vector_3" d="M12.3067 14.9827H6.09981C5.9169 14.9827 5.74149 14.9101 5.61215 14.7807C5.48282 14.6514 5.41016 14.476 5.41016 14.2931V11.5345C5.41016 11.1686 5.55548 10.8178 5.81415 10.5591C6.07282 10.3005 6.42365 10.1552 6.78947 10.1552H11.6171C11.9829 10.1552 12.3337 10.3005 12.5924 10.5591C12.851 10.8178 12.9964 11.1686 12.9964 11.5345V14.2931C12.9964 14.476 12.9237 14.6514 12.7944 14.7807C12.665 14.9101 12.4896 14.9827 12.3067 14.9827Z" fill="black"/>
<path id="Vector_4" d="M18.4653 10.1552C18.5115 10.1553 18.5567 10.1676 18.5966 10.1909C18.6364 10.2142 18.6694 10.2475 18.6922 10.2876C18.715 10.3277 18.7268 10.3731 18.7265 10.4192C18.7261 10.4654 18.7136 10.5106 18.6902 10.5503L17.3598 12.7855C17.3365 12.8243 17.3036 12.8565 17.2642 12.8788C17.2248 12.9012 17.1803 12.9129 17.135 12.9129C17.0897 12.9129 17.0452 12.9012 17.0058 12.8788C16.9664 12.8565 16.9334 12.8243 16.9102 12.7855L15.5798 10.5503C15.5562 10.5107 15.5435 10.4655 15.543 10.4193C15.5425 10.3732 15.5542 10.3277 15.577 10.2876C15.5998 10.2474 15.6328 10.214 15.6726 10.1908C15.7125 10.1675 15.7578 10.1552 15.8039 10.1552H18.4653Z" fill="black"/>
</g>
</svg>
