<svg width="20" height="21" viewBox="0 0 20 21" fill="none" xmlns="http://www.w3.org/2000/svg">
<g id="User">
<path id="Vector" d="M9.9996 1.87927C7.71403 1.88183 5.52281 2.7909 3.90667 4.40704C2.29053 6.02318 1.38146 8.2144 1.37891 10.5C1.38274 12.7851 2.29221 14.9756 3.90808 16.5915C5.52394 18.2073 7.71442 19.1168 9.9996 19.1207C12.2859 19.1207 14.4787 18.2124 16.0953 16.5957C17.712 14.979 18.6203 12.7863 18.6203 10.5C18.6203 8.21361 17.712 6.02091 16.0953 4.40421C14.4787 2.78752 12.2859 1.87927 9.9996 1.87927ZM15.243 15.4744C14.7589 14.4979 14.0115 13.6761 13.0851 13.1017C12.1587 12.5274 11.0903 12.2233 10.0003 12.2239C8.91032 12.2245 7.84219 12.5296 6.91643 13.105C5.99066 13.6803 5.2441 14.5029 4.76097 15.48C3.47195 14.1431 2.75369 12.3571 2.75822 10.5C2.75822 8.57943 3.52115 6.73756 4.87917 5.37953C6.23719 4.02151 8.07906 3.25858 9.9996 3.25858C11.9201 3.25858 13.762 4.02151 15.12 5.37953C16.478 6.73756 17.241 8.57943 17.241 10.5C17.2453 12.3545 16.5289 14.1381 15.243 15.4744ZM9.9996 5.32755C9.38579 5.32755 8.78577 5.50956 8.27541 5.85057C7.76505 6.19158 7.36728 6.67628 7.13238 7.24336C6.89749 7.81044 6.83603 8.43444 6.95578 9.03645C7.07553 9.63846 7.3711 10.1914 7.80513 10.6255C8.23915 11.0595 8.79213 11.3551 9.39414 11.4748C9.99615 11.5946 10.6202 11.5331 11.1872 11.2982C11.7543 11.0633 12.239 10.6655 12.58 10.1552C12.921 9.64482 13.103 9.0448 13.103 8.431C13.103 8.02345 13.0228 7.61989 12.8668 7.24336C12.7108 6.86683 12.4822 6.52471 12.1941 6.23653C11.9059 5.94835 11.5638 5.71975 11.1872 5.56378C10.8107 5.40782 10.4071 5.32755 9.9996 5.32755Z" fill="black"/>
</g>
</svg>
