<svg width="1920" height="360" viewBox="0 0 1920 360" fill="none" xmlns="http://www.w3.org/2000/svg">
<g clip-path="url(#clip0_253_32)">
<rect x="-92" y="10" width="250" height="250" rx="8" fill="#D9D9D9"/>
<path d="M-92 270H114C118.418 270 122 273.582 122 278V297C122 301.418 118.418 305 114 305H-92V270Z" fill="#D9D9D9"/>
<path d="M-92 315H141C145.418 315 149 318.582 149 323V342C149 346.418 145.418 350 141 350H-92V315Z" fill="#D9D9D9"/>
<rect x="178" y="10" width="250" height="250" rx="8" fill="#D9D9D9"/>
<path d="M178 270H384C388.418 270 392 273.582 392 278V297C392 301.418 388.418 305 384 305H178V270Z" fill="#D9D9D9"/>
<path d="M178 315H411C415.418 315 419 318.582 419 323V342C419 346.418 415.418 350 411 350H178V315Z" fill="#D9D9D9"/>
<rect x="448" y="10" width="250" height="250" rx="8" fill="#D9D9D9"/>
<path d="M448 270H654C658.418 270 662 273.582 662 278V297C662 301.418 658.418 305 654 305H448V270Z" fill="#D9D9D9"/>
<path d="M448 315H681C685.418 315 689 318.582 689 323V342C689 346.418 685.418 350 681 350H448V315Z" fill="#D9D9D9"/>
<rect x="718" y="10" width="250" height="250" rx="8" fill="#D9D9D9"/>
<path d="M718 270H924C928.418 270 932 273.582 932 278V297C932 301.418 928.418 305 924 305H718V270Z" fill="#D9D9D9"/>
<path d="M718 315H951C955.418 315 959 318.582 959 323V342C959 346.418 955.418 350 951 350H718V315Z" fill="#D9D9D9"/>
<rect x="988" y="10" width="250" height="250" rx="8" fill="#D9D9D9"/>
<path d="M988 270H1194C1198.42 270 1202 273.582 1202 278V297C1202 301.418 1198.42 305 1194 305H988V270Z" fill="#D9D9D9"/>
<path d="M988 315H1221C1225.42 315 1229 318.582 1229 323V342C1229 346.418 1225.42 350 1221 350H988V315Z" fill="#D9D9D9"/>
<rect x="1258" y="10" width="250" height="250" rx="8" fill="#D9D9D9"/>
<path d="M1258 270H1464C1468.42 270 1472 273.582 1472 278V297C1472 301.418 1468.42 305 1464 305H1258V270Z" fill="#D9D9D9"/>
<path d="M1258 315H1491C1495.42 315 1499 318.582 1499 323V342C1499 346.418 1495.42 350 1491 350H1258V315Z" fill="#D9D9D9"/>
<rect x="1528" y="10" width="250" height="250" rx="8" fill="#D9D9D9"/>
<path d="M1528 270H1734C1738.42 270 1742 273.582 1742 278V297C1742 301.418 1738.42 305 1734 305H1528V270Z" fill="#D9D9D9"/>
<path d="M1528 315H1761C1765.42 315 1769 318.582 1769 323V342C1769 346.418 1765.42 350 1761 350H1528V315Z" fill="#D9D9D9"/>
<rect x="1798" y="10" width="250" height="250" rx="8" fill="#D9D9D9"/>
<path d="M1798 270H2004C2008.42 270 2012 273.582 2012 278V297C2012 301.418 2008.42 305 2004 305H1798V270Z" fill="#D9D9D9"/>
<path d="M1798 315H2031C2035.42 315 2039 318.582 2039 323V342C2039 346.418 2035.42 350 2031 350H1798V315Z" fill="#D9D9D9"/>
</g>
<defs>
<clipPath id="clip0_253_32">
<rect width="1920" height="360" fill="white"/>
</clipPath>
</defs>
</svg>
