<svg width="25" height="25" viewBox="0 0 25 25" fill="none" xmlns="http://www.w3.org/2000/svg">
<g id="linkedin">
<path id="Vector" d="M21.2201 2.4999H4.28006C4.08964 2.49725 3.90056 2.53214 3.72362 2.60258C3.54669 2.67302 3.38536 2.77762 3.24886 2.91041C3.11235 3.0432 3.00334 3.20158 2.92805 3.37651C2.85276 3.55143 2.81267 3.73947 2.81006 3.9299V21.0699C2.81267 21.2603 2.85276 21.4484 2.92805 21.6233C3.00334 21.7982 3.11235 21.9566 3.24886 22.0894C3.38536 22.2222 3.54669 22.3268 3.72362 22.3972C3.90056 22.4676 4.08964 22.5025 4.28006 22.4999H21.2201C21.4105 22.5025 21.5996 22.4676 21.7765 22.3972C21.9534 22.3268 22.1148 22.2222 22.2513 22.0894C22.3878 21.9566 22.4968 21.7982 22.5721 21.6233C22.6474 21.4484 22.6875 21.2603 22.6901 21.0699V3.9299C22.6875 3.73947 22.6474 3.55143 22.5721 3.37651C22.4968 3.20158 22.3878 3.0432 22.2513 2.91041C22.1148 2.77762 21.9534 2.67302 21.7765 2.60258C21.5996 2.53214 21.4105 2.49725 21.2201 2.4999ZM8.84006 19.2399H5.84006V10.2399H8.84006V19.2399ZM7.34006 8.9799C6.92632 8.9799 6.52953 8.81554 6.23697 8.52298C5.94442 8.23043 5.78006 7.83363 5.78006 7.4199C5.78006 7.00616 5.94442 6.60937 6.23697 6.31681C6.52953 6.02425 6.92632 5.8599 7.34006 5.8599C7.55975 5.83498 7.78224 5.85675 7.99293 5.92378C8.20363 5.99081 8.3978 6.10159 8.56272 6.24886C8.72763 6.39613 8.85958 6.57657 8.94993 6.77838C9.04028 6.98018 9.08698 7.19879 9.08698 7.4199C9.08698 7.641 9.04028 7.85961 8.94993 8.06141C8.85958 8.26322 8.72763 8.44366 8.56272 8.59093C8.3978 8.73821 8.20363 8.84898 7.99293 8.91601C7.78224 8.98304 7.55975 9.00481 7.34006 8.9799ZM19.6601 19.2399H16.6601V14.4099C16.6601 13.1999 16.2301 12.4099 15.1401 12.4099C14.8027 12.4124 14.4742 12.5182 14.1989 12.7131C13.9235 12.908 13.7145 13.1826 13.6001 13.4999C13.5218 13.7349 13.4879 13.9825 13.5001 14.2299V19.2299H10.5001C10.5001 19.2299 10.5001 11.0499 10.5001 10.2299H13.5001V11.4999C13.7726 11.027 14.169 10.6374 14.6465 10.3731C15.124 10.1088 15.6646 9.97975 16.2101 9.9999C18.2101 9.9999 19.6601 11.2899 19.6601 14.0599V19.2399Z" fill="black"/>
</g>
</svg>
