<svg width="25" height="25" viewBox="0 0 25 25" fill="none" xmlns="http://www.w3.org/2000/svg">
<g id="twitter">
<path id="Vector" d="M22.5 6.29997C21.7483 6.62606 20.9534 6.84163 20.14 6.93997C20.9982 6.42729 21.6413 5.62075 21.95 4.66997C21.1436 5.15003 20.2608 5.48826 19.34 5.66997C18.7245 5.00254 17.905 4.55826 17.0098 4.40682C16.1147 4.25537 15.1945 4.40532 14.3938 4.83315C13.593 5.26099 12.9569 5.9425 12.5852 6.7708C12.2135 7.59911 12.1273 8.52736 12.34 9.40997C10.7094 9.32749 9.11444 8.90292 7.65865 8.16383C6.20287 7.42474 4.91885 6.38766 3.89 5.11997C3.52914 5.75013 3.33952 6.46379 3.34 7.18997C3.33872 7.86435 3.50422 8.52858 3.82176 9.12353C4.13929 9.71848 4.59902 10.2257 5.16 10.6C4.50798 10.5822 3.86989 10.4073 3.3 10.09V10.14C3.30489 11.0849 3.63599 11.9991 4.23731 12.7279C4.83864 13.4568 5.67326 13.9556 6.6 14.14C6.24326 14.2485 5.87287 14.3058 5.5 14.31C5.24189 14.307 4.98442 14.2835 4.73 14.24C4.99391 15.0528 5.50462 15.7631 6.19107 16.2721C6.87753 16.7811 7.70558 17.0635 8.56 17.08C7.1172 18.2152 5.33588 18.8348 3.5 18.84C3.16574 18.8411 2.83174 18.821 2.5 18.78C4.37443 19.9902 6.55881 20.6327 8.79 20.63C10.3297 20.646 11.8571 20.355 13.2831 19.774C14.7091 19.1931 16.005 18.3338 17.0952 17.2465C18.1854 16.1591 19.048 14.8654 19.6326 13.4409C20.2172 12.0164 20.512 10.4897 20.5 8.94997C20.5 8.77996 20.5 8.59997 20.5 8.41997C21.2847 7.83478 21.9615 7.11739 22.5 6.29997Z" fill="black"/>
</g>
</svg>
